<svg xmlns="http://www.w3.org/2000/svg" width="24" height="24" fill="#26F808" viewBox="0 0 24 24">
  <path d="M12 0C5.37 0 0 5.37 0 12c0 5.3 3.438 9.8 8.205 11.385.6.113.82-.26.82-.577 0-.285-.01-1.04-.015-2.04-3.338.725-4.042-1.61-4.042-1.61-.546-1.386-1.333-1.756-1.333-1.756-1.09-.745.083-.73.083-.73 1.205.084 1.84 1.236 1.84 1.236 1.07 1.835 2.807 1.305 3.492.998.108-.775.418-1.305.76-1.605-2.665-.3-5.466-1.332-5.466-5.931 0-1.31.47-2.38 1.235-3.22-.124-.303-.535-1.523.117-3.176 0 0 1.008-.323 3.3 1.23A11.5 11.5 0 0112 5.8c1.02.005 2.045.138 3.003.404 2.29-1.554 3.297-1.23 3.297-1.23.653 1.653.242 2.873.12 3.176.77.84 1.234 1.91 1.234 3.22 0 4.61-2.807 5.628-5.48 5.921.43.37.815 1.096.815 2.21 0 1.595-.015 2.882-.015 3.273 0 .32.217.694.825.576C20.565 21.796 24 17.3 24 12c0-6.63-5.373-12-12-12z"></path>
</svg>
